<?xml version="1.0" encoding="UTF-8" standalone="no"?>
<!-- Created with Inkscape (http://www.inkscape.org/) -->

<svg
   version="1.1"
   id="svg2"
   xml:space="preserve"
   width="486"
   height="254.748"
   viewBox="0 0 486 254.748"
   sodipodi:docname="textCaminho.svg"
   inkscape:version="1.1.2 (0a00cf5339, 2022-02-04, custom)"
   xmlns:inkscape="http://www.inkscape.org/namespaces/inkscape"
   xmlns:sodipodi="http://sodipodi.sourceforge.net/DTD/sodipodi-0.dtd"
   xmlns="http://www.w3.org/2000/svg"
   xmlns:svg="http://www.w3.org/2000/svg"><defs
     id="defs6"><clipPath
       clipPathUnits="userSpaceOnUse"
       id="clipPath22"><path
         d="m 1464.36,4110.97 -205.77,234.87 c 13.39,69.36 19.64,132.75 19.62,190.7 v 0 c -0.13,488.92 -445.855,589.01 -810.87,589.01 C 214.297,5125.55 0,5077.43 0,5077.43 l 694.395,619.99 c 69.734,-12.75 133.46,-18.71 191.738,-18.71 477.397,0.02 586.527,400.4 590.657,750.66 120.07,-190.75 324.06,-568.18 369,-989.2 -47.07,70.38 -127.28,116.72 -218.3,116.72 -144.96,0 -262.47,-117.5 -262.47,-262.46 v 0 0 0 0 c 0,-144.95 117.51,-262.46 262.47,-262.46 93.44,0 175.48,48.83 221.99,122.39 -10.58,-120.84 -37.65,-242.59 -86.69,-362.13 -145.58,-354.85 -239.06,-561.21 -298.43,-681.27 m 425.58,1182.26 c 0,0.01 0,0.02 0,0.02 0,-0.01 0,-0.01 0,-0.02 m 0,0.54 c 0,0.04 0,0.09 0,0.13 0,-0.05 0,-0.09 0,-0.13 m 0,1.23 c 0,0.05 0,0.1 0,0.15 0,-0.05 0,-0.1 0,-0.15 m 0,0.68 c 0,0.01 0,0.02 0,0.03 0,-0.01 0,-0.02 0,-0.03 m -0.01,0.61 c 0,0.02 0,0.07 0,0.09 0,-0.03 0,-0.06 0,-0.09 m -0.01,1.3 v 0.01 -0.01 M 1419.8,6943.59 c 0,0 0,0 -0.01,0 0.01,0 0.01,0 0.01,0 m -0.01,0.01 c 0,0.01 0,0.01 0,0.01 0,0 0,0 0,-0.01"
         id="path20" /></clipPath><clipPath
       clipPathUnits="userSpaceOnUse"
       id="clipPath40"><path
         d="m 1872.38,3645.24 -408.02,465.73 c 59.37,120.05 152.85,326.41 298.43,681.26 49.04,119.54 76.11,241.29 86.69,362.13 25.42,40.21 40.23,87.83 40.46,138.86 0,0.01 0,0.01 0,0.02 0,0.18 0,0.34 0,0.52 0,0.04 0,0.08 0,0.13 0,0.18 0,0.35 0,0.54 v 0 0 0 0 0 0 0 c 0,0.19 0,0.37 0,0.56 0,0.05 0,0.1 0,0.15 0,0.18 0,0.36 0,0.53 0,0.01 0,0.02 0,0.03 0,0.19 0,0.38 -0.01,0.58 0,0.03 0,0.06 0,0.09 0,0.41 0,0.8 -0.01,1.21 v 0.01 c -0.62,52.72 -16.78,101.7 -44.13,142.58 -44.94,421.02 -248.93,798.45 -369,989.2 0.09,7.18 0.13,14.43 0.13,21.58 v 0 c -0.06,261.79 -56.45,489.92 -57.12,492.64 0,0 0,0 -0.01,0 0,0.01 0,0.01 0,0.01 0,0.01 0,0.01 0,0.01 v 0 l 601.39,-669.59 c -8.82,-63.47 -12.99,-122.22 -12.97,-176.65 v 0 0 c 0.19,-532.12 399.76,-647.52 746.48,-647.52 265.63,0 500.28,67.77 500.28,67.77 l -663.39,-619.99 c -74.89,16.49 -142.59,24.13 -204.01,24.13 -466.44,0 -562.39,-441.94 -562.27,-805.72 v 0 0 c 0.08,-254.49 47.08,-470.8 47.08,-470.8"
         id="path38" /></clipPath><clipPath
       clipPathUnits="userSpaceOnUse"
       id="clipPath58"><path
         d="m 0,5077.43 c 0,0 33.8867,7.6 90.6133,16.75 l 647.4377,596.13 c -14.313,2.1 -28.805,4.39 -43.656,7.11 z"
         id="path56" /></clipPath><linearGradient
       x1="0"
       y1="0"
       x2="1"
       y2="0"
       gradientUnits="userSpaceOnUse"
       gradientTransform="matrix(738.052,0,0,-738.052,0,5387.43)"
       spreadMethod="pad"
       id="linearGradient64"><stop
         style="stop-opacity:1;stop-color:#ffffff"
         offset="0"
         id="stop60" /><stop
         style="stop-opacity:1;stop-color:#231f20"
         offset="1"
         id="stop62" /></linearGradient><clipPath
       clipPathUnits="userSpaceOnUse"
       id="clipPath74"><path
         d="m 1419.79,6943.61 c 0,0 7.17,-28.85 16.42,-77.75 l 575.72,-677.92 c 2.12,27.72 5.12,56.33 9.25,86.08 z"
         id="path72" /></clipPath><linearGradient
       x1="0"
       y1="0"
       x2="1"
       y2="0"
       gradientUnits="userSpaceOnUse"
       gradientTransform="matrix(223.197,-588.993,-588.993,-223.197,1581.75,6957.73)"
       spreadMethod="pad"
       id="linearGradient80"><stop
         style="stop-opacity:1;stop-color:#ffffff"
         offset="0"
         id="stop76" /><stop
         style="stop-opacity:1;stop-color:#231f20"
         offset="1"
         id="stop78" /></linearGradient><clipPath
       clipPathUnits="userSpaceOnUse"
       id="clipPath90"><path
         d="m 2591.58,4897.63 663.39,619.99 c 0,0 -33.99,-9.79 -90.65,-21.93 l -626.79,-587.62 c 17.63,-2.99 35.56,-6.37 54.05,-10.44 z"
         id="path88" /></clipPath><linearGradient
       x1="0"
       y1="0"
       x2="1"
       y2="0"
       gradientUnits="userSpaceOnUse"
       gradientTransform="matrix(86.7726,-228.983,-228.983,-86.7726,2842.28,5355.28)"
       spreadMethod="pad"
       id="linearGradient96"><stop
         style="stop-opacity:1;stop-color:#ffffff"
         offset="0"
         id="stop92" /><stop
         style="stop-opacity:1;stop-color:#231f20"
         offset="1"
         id="stop94" /></linearGradient><clipPath
       clipPathUnits="userSpaceOnUse"
       id="clipPath106"><path
         d="m 1258.59,4345.84 613.79,-700.6 c 0,0 -8.16,37.59 -17.67,99.76 l -584.82,670.54 c -2.95,-22.55 -6.68,-45.75 -11.3,-69.7 z"
         id="path104" /></clipPath><linearGradient
       x1="0"
       y1="0"
       x2="1"
       y2="0"
       gradientUnits="userSpaceOnUse"
       gradientTransform="matrix(227.419,-600.133,-600.133,-227.419,1413.96,4421.98)"
       spreadMethod="pad"
       id="linearGradient112"><stop
         style="stop-opacity:1;stop-color:#ffffff"
         offset="0"
         id="stop108" /><stop
         style="stop-opacity:1;stop-color:#231f20"
         offset="1"
         id="stop110" /></linearGradient><clipPath
       clipPathUnits="userSpaceOnUse"
       id="clipPath126"><path
         d="m 6100.1,4111.46 c 0,0 -3.81,1.22 -11.02,3.72 -90.65,31.4 -721.04,265.03 -1152.69,829.32 -79.16,103.48 -151.66,218.12 -212.9,344.64 0,0 98.25,-27.84 193.89,-27.84 53.45,0 106.08,8.69 140.32,35.79 28.23,22.35 43.93,54.08 43.94,87.19 v 0 c 0,17.29 -4.28,34.96 -13.3,51.85 -29.14,54.6 -107.77,101.18 -251.18,101.18 -14.67,0 -29.99,-0.48 -46.03,-1.5 -297.91,-18.85 -896.08,-359.4 -1299.85,-679.46 -22.23,-17.62 -43.86,-35.17 -64.82,-52.61 0,0 298.39,720.14 1161.76,1193.59 0,0 -52.57,-90.3 -52.58,-173.63 v 0 c 0,-59.85 27.09,-116.09 120.22,-132.72 10.1,-1.81 19.79,-2.69 29.02,-2.69 95.3,-0.01 144.17,93.55 144.18,230.12 v 0 c 0,142 -52.84,330.49 -161.27,508.62 -222.8,366.03 -477.44,632.6 -477.44,632.6 0,0 712.18,-131.29 1141.88,-883.26 0,0 -83.07,40.67 -170.29,40.67 -43.61,0 -88.25,-10.16 -124.08,-40.67 -23.97,-20.41 -35.87,-45.75 -35.82,-72.13 v 0 c 0.13,-75.53 98.19,-159.43 291.05,-159.43 41.77,0 87.98,3.93 138.6,12.74 366.03,63.66 1098.1,605.67 1177.67,680.8 0,0 -3.89,-23.78 -16.32,-65.65 -54.03,-181.86 -269.26,-704.67 -1026.17,-1098.2 -16.95,-8.82 -34.12,-17.54 -51.63,-26.22 0,0 58.95,100.38 58.89,197.28 v 0 c -0.04,56.23 -19.94,111.28 -82.76,144.88 -19.95,10.67 -39.68,15.72 -58.66,15.72 -90.05,0 -163.3,-113.49 -163.27,-278.55 v 0 c 0.01,-98.64 26.21,-215.67 90.63,-337.94 194.96,-370.01 572.93,-919.06 740.03,-1078.21"
         id="path124" /></clipPath><clipPath
       clipPathUnits="userSpaceOnUse"
       id="clipPath138"><path
         d="m 6469.45,6528.46 c -158.82,-233.84 -524.24,-729.82 -904.23,-953.38 -16.44,-69.66 -49.98,-126.8 -49.98,-126.8 978.74,485.39 1094.13,1190.07 1094.13,1190.07 -17.8,-16.8 -68.27,-56.97 -139.92,-109.89 z"
         id="path136" /></clipPath><linearGradient
       x1="0"
       y1="0"
       x2="1"
       y2="0"
       gradientUnits="userSpaceOnUse"
       gradientTransform="matrix(1094.12,0,0,-1094.12,5515.24,6043.32)"
       spreadMethod="pad"
       id="linearGradient144"><stop
         style="stop-opacity:1;stop-color:#ffffff"
         offset="0"
         id="stop140" /><stop
         style="stop-opacity:1;stop-color:#231f20"
         offset="1"
         id="stop142" /></linearGradient><clipPath
       clipPathUnits="userSpaceOnUse"
       id="clipPath154"><path
         d="m 6100.1,4111.46 c -41.93,39.94 -97.13,104.42 -159.4,184.46 -537.68,217.5 -990.88,806.19 -1110.65,971.84 -60.1,8.23 -106.56,21.38 -106.56,21.38 C 5145.22,4417.81 6100.1,4111.46 6100.1,4111.46 Z"
         id="path152" /></clipPath><linearGradient
       x1="0"
       y1="0"
       x2="1"
       y2="0"
       gradientUnits="userSpaceOnUse"
       gradientTransform="matrix(1376.61,0,0,-1376.61,4723.49,4700.3)"
       spreadMethod="pad"
       id="linearGradient160"><stop
         style="stop-opacity:1;stop-color:#ffffff"
         offset="0"
         id="stop156" /><stop
         style="stop-opacity:1;stop-color:#231f20"
         offset="1"
         id="stop158" /></linearGradient><clipPath
       clipPathUnits="userSpaceOnUse"
       id="clipPath170"><path
         d="m 4549.98,5908 c 15.57,50.36 38.24,89.34 38.24,89.34 -863.37,-473.46 -1161.76,-1193.6 -1161.76,-1193.6 65.61,54.57 137.82,110.29 214.05,165.45 270.47,457.55 774.2,840.81 909.47,938.81 z"
         id="path168" /></clipPath><linearGradient
       x1="0"
       y1="0"
       x2="1"
       y2="0"
       gradientUnits="userSpaceOnUse"
       gradientTransform="matrix(1092.8,106.098,106.098,-1092.8,3361.15,5337.79)"
       spreadMethod="pad"
       id="linearGradient176"><stop
         style="stop-opacity:1;stop-color:#ffffff"
         offset="0"
         id="stop172" /><stop
         style="stop-opacity:1;stop-color:#231f20"
         offset="1"
         id="stop174" /></linearGradient><clipPath
       clipPathUnits="userSpaceOnUse"
       id="clipPath186"><path
         d="m 4190.35,7059.63 c 0,0 27.09,-28.38 71.14,-79.08 195.96,-77.8 628.97,-292.98 956.68,-768.6 63.57,-10.9 114.06,-35.57 114.06,-35.57 -429.7,751.96 -1141.88,883.25 -1141.88,883.25 z"
         id="path184" /></clipPath><linearGradient
       x1="0"
       y1="0"
       x2="1"
       y2="0"
       gradientUnits="userSpaceOnUse"
       gradientTransform="matrix(1141.88,0,0,-1141.88,4190.35,6618)"
       spreadMethod="pad"
       id="linearGradient192"><stop
         style="stop-opacity:1;stop-color:#ffffff"
         offset="0"
         id="stop188" /><stop
         style="stop-opacity:1;stop-color:#231f20"
         offset="1"
         id="stop190" /></linearGradient><clipPath
       clipPathUnits="userSpaceOnUse"
       id="clipPath206"><path
         d="m 3008.4,390.742 v 0.047 c -0.3,29.211 -518.89,873.831 -518.89,873.831 0,0 -393.73,68.11 -393.73,420 0,-351.89 393.73,-420 393.73,-420 0,0 518.66,-844.722 518.89,-873.831 0,-0.019 0,-0.027 0,-0.047"
         id="path204" /></clipPath><linearGradient
       x1="0"
       y1="0"
       x2="1"
       y2="0"
       gradientUnits="userSpaceOnUse"
       gradientTransform="matrix(825.102,-1520.9,-1520.9,-825.102,1305.97,2380.05)"
       spreadMethod="pad"
       id="linearGradient212"><stop
         style="stop-opacity:1;stop-color:#ffffff"
         offset="0"
         id="stop208" /><stop
         style="stop-opacity:1;stop-color:#231f20"
         offset="1"
         id="stop210" /></linearGradient><clipPath
       clipPathUnits="userSpaceOnUse"
       id="clipPath222"><path
         d="m 1638.82,2088.74 c -344.93,-0.03 -386.18,373.21 -386.18,373.21 0,0 -852.038,501.61 -879.519,501.61 -0.683,0 -1.019,-0.54 -1.023,-1.59 v 0 c 0.004,1.05 0.34,1.59 1.023,1.59 27.481,0 879.519,-501.61 879.519,-501.61 0,0 41.25,-373.24 386.18,-373.21 6.85,0 13.86,0.14 20.95,0.45 364.19,15.46 415.73,254.23 429.48,388.23 0,0 867.05,524.52 892.73,524.52 0.38,0 0.58,-0.12 0.59,-0.35 v 0 c -0.01,0.2 -0.16,0.31 -0.45,0.34 h -0.29 c -28.76,-1.93 -892.58,-524.51 -892.58,-524.51 -13.75,-134 -65.29,-372.77 -429.48,-388.23 -7.09,-0.31 -14.1,-0.45 -20.95,-0.45"
         id="path220" /></clipPath><linearGradient
       x1="0"
       y1="0"
       x2="1"
       y2="0"
       gradientUnits="userSpaceOnUse"
       gradientTransform="matrix(825.102,-1520.9,-1520.9,-825.102,1305.97,2380.05)"
       spreadMethod="pad"
       id="linearGradient228"><stop
         style="stop-opacity:1;stop-color:#ffffff"
         offset="0"
         id="stop224" /><stop
         style="stop-opacity:1;stop-color:#231f20"
         offset="1"
         id="stop226" /></linearGradient><clipPath
       clipPathUnits="userSpaceOnUse"
       id="clipPath238"><path
         d="m 390.285,355.871 508.488,891.579 c 0,0 364.317,68.32 364.247,424.07 v 0 c 0,2.44 -0.02,4.91 -0.06,7.38 -5.15,362.2 -383.073,413.7 -383.073,413.7 0,0 -507.977,828.12 -507.789,869.37 0.004,1.05 0.34,1.59 1.023,1.59 27.481,0 879.519,-501.61 879.519,-501.61 0,0 41.25,-373.24 386.18,-373.21 6.85,0 13.86,0.14 20.95,0.45 364.19,15.46 415.73,254.23 429.48,388.23 0,0 863.82,522.58 892.58,524.51 h 0.29 c 0.29,-0.03 0.44,-0.14 0.45,-0.34 0,-0.07 -0.01,-0.14 -0.04,-0.23 -6.88,-20.6 -501.62,-903.6 -501.62,-903.6 0,0 -371.04,-27.45 -384.79,-395.08 -0.22,-6.1 -0.34,-12.12 -0.34,-18.06 v 0 c 0,-351.89 393.73,-420 393.73,-420 0,0 518.59,-844.62 518.89,-873.831 v -0.047 c 0,-0.222 -0.03,-0.39 -0.1,-0.512 -0.13,-0.23 -0.44,-0.339 -0.94,-0.339 -2.54,0 -9.89,2.941 -21.27,8.351 -138.21,65.68 -872.79,497.039 -872.79,497.039 0,0 -61.21,359.029 -425.71,371.059 -5.56,0.18 -11.02,0.27 -16.44,0.27 -349.44,0 -394.45,-376.501 -394.45,-376.501 L 423.629,375.961 390.285,355.871 M 2025.52,1269.73 v 0 c 0,-39.85 32.31,-72.16 72.16,-72.16 39.85,0 72.16,32.31 72.16,72.16 v 0 0 0 0 c 0,39.86 -32.31,72.18 -72.16,72.18 -39.85,0 -72.16,-32.32 -72.16,-72.18 v 0 0 0 m -802.08,0 v 0 c 0,-39.85 32.31,-72.16 72.17,-72.16 39.85,0 72.16,32.31 72.16,72.16 v 0 0 0 0 c 0,39.86 -32.31,72.18 -72.16,72.18 -39.86,0 -72.17,-32.32 -72.17,-72.18 v 0 0 0 m 457.58,220.66 c 23.58,-19.44 53.8,-31.12 86.75,-31.12 75.42,0 136.57,61.16 136.57,136.58 v 0 0 0 0 c 0,30.39 -10.05,58.36 -26.84,81.06 16.79,22.69 26.84,50.67 26.84,81.05 v 0 0 0 0 c 0,75.43 -61.15,136.58 -136.57,136.58 -32.95,0 -63.17,-11.68 -86.75,-31.11 -23.59,19.43 -53.81,31.11 -86.76,31.11 -75.42,0 -136.56,-61.15 -136.56,-136.58 v 0 0 0 0 c 0,-30.38 10.04,-58.36 26.83,-81.05 -16.79,-22.7 -26.83,-50.67 -26.83,-81.06 v 0 0 0 0 c 0,-75.42 61.14,-136.58 136.56,-136.58 32.95,0 63.17,11.68 86.76,31.12 m 344.5,580.17 v 0 c 0,-39.85 32.31,-72.15 72.16,-72.15 39.85,0 72.16,32.3 72.16,72.15 v 0 0 0 0 c 0,39.86 -32.31,72.17 -72.16,72.17 -39.85,0 -72.16,-32.31 -72.16,-72.17 v 0 0 0 m -802.08,0 v 0 c 0,-39.85 32.31,-72.15 72.17,-72.15 39.85,0 72.16,32.3 72.16,72.15 v 0 0 0 0 c 0,39.86 -32.31,72.17 -72.16,72.17 -39.86,0 -72.17,-32.31 -72.17,-72.17 v 0 0 0"
         id="path236" /></clipPath><clipPath
       clipPathUnits="userSpaceOnUse"
       id="clipPath250"><path
         d="m 956.246,2073.47 -411.344,701.12 733.088,-414.64 c -20.4,57.86 -25.35,102 -25.35,102 0,0 -852.038,501.61 -879.519,501.61 -27.484,0 506.766,-870.96 506.766,-870.96 0,0 31.504,-4.35 76.359,-19.13 z"
         id="path248" /></clipPath><linearGradient
       x1="0"
       y1="0"
       x2="1"
       y2="0"
       gradientUnits="userSpaceOnUse"
       gradientTransform="matrix(172.409,-948.247,-948.247,-172.409,787.012,2869.79)"
       spreadMethod="pad"
       id="linearGradient256"><stop
         style="stop-opacity:1;stop-color:#ffffff"
         offset="0"
         id="stop252" /><stop
         style="stop-opacity:1;stop-color:#231f20"
         offset="1"
         id="stop254" /></linearGradient><clipPath
       clipPathUnits="userSpaceOnUse"
       id="clipPath266"><path
         d="m 2396.62,2080.8 c 49.07,14.32 84.29,16.96 84.29,16.96 0,0 494.74,883 501.62,903.6 6.87,20.62 -893.28,-523.94 -893.28,-523.94 -2.63,-25.64 -6.68,-55.12 -14,-86.12 l 730.36,443.41 z"
         id="path264" /></clipPath><linearGradient
       x1="0"
       y1="0"
       x2="1"
       y2="0"
       gradientUnits="userSpaceOnUse"
       gradientTransform="matrix(-320.183,-1126.8,-1126.8,320.183,2615.51,3019.59)"
       spreadMethod="pad"
       id="linearGradient272"><stop
         style="stop-opacity:1;stop-color:#ffffff"
         offset="0"
         id="stop268" /><stop
         style="stop-opacity:1;stop-color:#231f20"
         offset="1"
         id="stop270" /></linearGradient><clipPath
       clipPathUnits="userSpaceOnUse"
       id="clipPath282"><path
         d="M 2401.87,1289.85 2841.68,556.828 2091.55,969.57 c 16.45,-43.609 21.75,-74.289 21.75,-74.289 0,0 886.42,-520.519 895,-505.051 8.58,15.469 -518.79,874.39 -518.79,874.39 0,0 -36.73,6.43 -87.64,25.23 z"
         id="path280" /></clipPath><linearGradient
       x1="0"
       y1="0"
       x2="1"
       y2="0"
       gradientUnits="userSpaceOnUse"
       gradientTransform="matrix(916.851,0,0,-916.851,2091.55,839.87)"
       spreadMethod="pad"
       id="linearGradient288"><stop
         style="stop-opacity:1;stop-color:#ffffff"
         offset="0"
         id="stop284" /><stop
         style="stop-opacity:1;stop-color:#231f20"
         offset="1"
         id="stop286" /></linearGradient><clipPath
       clipPathUnits="userSpaceOnUse"
       id="clipPath298"><path
         d="M 1301.19,987.23 562.07,529.371 981.195,1273.35 c -47.812,-19.36 -82.422,-25.9 -82.422,-25.9 L 390.289,355.871 1276.7,890.109 c 0,0 5.06,41.629 24.49,97.121 z"
         id="path296" /></clipPath><linearGradient
       x1="0"
       y1="0"
       x2="1"
       y2="0"
       gradientUnits="userSpaceOnUse"
       gradientTransform="matrix(910.903,0,0,-910.903,390.288,814.61)"
       spreadMethod="pad"
       id="linearGradient304"><stop
         style="stop-opacity:1;stop-color:#ffffff"
         offset="0"
         id="stop300" /><stop
         style="stop-opacity:1;stop-color:#231f20"
         offset="1"
         id="stop302" /></linearGradient><clipPath
       clipPathUnits="userSpaceOnUse"
       id="clipPath318"><path
         d="m 3388.91,2280.36 c -0.01,0 -0.02,0 -0.03,0 h 0.06 c -0.01,0 -0.02,0 -0.03,0"
         id="path316" /></clipPath><linearGradient
       x1="0"
       y1="0"
       x2="1"
       y2="0"
       gradientUnits="userSpaceOnUse"
       gradientTransform="matrix(-758.685,-1031.54,-1031.54,758.685,4185.35,4047.06)"
       spreadMethod="pad"
       id="linearGradient324"><stop
         style="stop-opacity:1;stop-color:#ffffff"
         offset="0"
         id="stop320" /><stop
         style="stop-opacity:1;stop-color:#231f20"
         offset="1"
         id="stop322" /></linearGradient><clipPath
       clipPathUnits="userSpaceOnUse"
       id="clipPath334"><path
         d="m 5129.71,3120.16 v 0.06 c -0.98,12.68 -632.49,432.93 -632.49,432.93 -34.49,-12.09 -80.01,-25.22 -130,-25.22 -86.36,0 -186.05,39.18 -265.25,190.57 -25.27,48.32 -35.37,93.04 -35.39,133.65 0.02,-40.61 10.12,-85.33 35.39,-133.65 79.2,-151.39 178.89,-190.57 265.25,-190.57 49.99,0 95.51,13.13 130,25.22 0,0 632.45,-420.87 632.49,-432.96 0,-0.01 0,-0.02 0,-0.03"
         id="path332" /></clipPath><linearGradient
       x1="0"
       y1="0"
       x2="1"
       y2="0"
       gradientUnits="userSpaceOnUse"
       gradientTransform="matrix(-758.685,-1031.54,-1031.54,758.685,4185.35,4047.06)"
       spreadMethod="pad"
       id="linearGradient340"><stop
         style="stop-opacity:1;stop-color:#ffffff"
         offset="0"
         id="stop336" /><stop
         style="stop-opacity:1;stop-color:#231f20"
         offset="1"
         id="stop338" /></linearGradient><clipPath
       clipPathUnits="userSpaceOnUse"
       id="clipPath350"><path
         d="m 3388.94,2280.36 h -0.06 v 0 c -1.12,0.07 -1.64,5.74 -1.64,16.03 0,109.45 58,742.39 58,742.39 0,0 143.57,100.01 143.54,268.51 v 0 c 0,40.64 -8.36,85.28 -29.11,133.45 -61.5,142.81 -178.7,173.07 -267.02,173.07 -64.98,0 -114.33,-16.39 -114.33,-16.39 l -636.94,425.38 757.23,-59.75 c 0,0 102.39,-141.95 265.02,-141.94 42.36,0 88.82,9.63 138.61,33.92 141.64,69.09 170.8,190.64 170.78,279.09 v 0 c -0.01,62 -14.37,107.74 -14.37,107.74 0,0 403.21,614.07 423.06,614.07 0.29,0 0.49,-0.13 0.62,-0.4 0.52,-1.1 0.76,-4.77 0.76,-10.69 0.02,-92.6 -59.7,-736.29 -59.7,-736.29 0,0 -156.89,-96.13 -156.81,-256.4 v 0 c 0.02,-40.61 10.12,-85.33 35.39,-133.65 79.2,-151.39 178.89,-190.57 265.25,-190.57 49.99,0 95.51,13.13 130,25.22 0,0 631.51,-420.25 632.49,-432.93 v -0.06 c -0.01,-0.13 -0.11,-0.21 -0.29,-0.23 -0.28,-0.03 -0.78,-0.05 -1.49,-0.05 -4.71,0 -18.75,0.7 -39.87,1.95 -159.33,9.38 -721.75,49.47 -721.75,49.47 0,0 -90.52,160.56 -260.68,160.56 -37.8,0 -79.55,-7.93 -125.08,-27.3 -8.66,-3.68 -16.92,-7.59 -24.8,-11.7 -130.68,-68.17 -157.21,-192.65 -157.19,-282.61 v 0 c 0.02,-61.65 12.51,-107.09 12.51,-107.09 0,0 -408.03,-622.03 -422.13,-622.8 M 3637.69,3167 c 0.02,-7.57 1.66,-15.25 5.09,-22.55 9.09,-19.35 28.31,-30.7 48.36,-30.7 7.61,0 15.34,1.64 22.69,5.1 19.39,9.11 30.75,28.4 30.7,48.51 v 0 c -0.02,7.56 -1.66,15.25 -5.09,22.55 -9.1,19.34 -28.32,30.67 -48.37,30.67 -7.62,0 -15.35,-1.63 -22.7,-5.08 -19.4,-9.12 -30.74,-28.4 -30.68,-48.5 v 0 M 4174,3419.19 c 0.02,-7.57 1.66,-15.25 5.09,-22.54 9.1,-19.35 28.32,-30.7 48.37,-30.7 7.61,0 15.34,1.63 22.68,5.08 19.39,9.13 30.74,28.42 30.69,48.52 v 0 c -0.02,7.57 -1.66,15.25 -5.09,22.55 -9.1,19.35 -28.32,30.69 -48.37,30.69 -7.61,0 -15.34,-1.64 -22.69,-5.09 -19.38,-9.12 -30.74,-28.41 -30.68,-48.51 v 0 m -469.49,71.48 c 0.01,-14.39 3.09,-29 9.62,-42.87 17.22,-36.61 53.59,-58.08 91.54,-58.08 14.4,0 29.04,3.1 42.93,9.63 20.36,9.57 35.93,25.12 45.84,43.51 6.57,-1.32 13.29,-2 20.06,-2 14.32,0 28.86,3.05 42.68,9.55 36.6,17.2 58.07,53.56 58.08,91.49 v 0 c 0,14.42 -3.1,29.07 -9.64,42.98 -10.37,22.06 -27.7,38.62 -48.14,48.3 2.07,8.13 3.14,16.54 3.13,25.03 v 0 c -0.01,14.38 -3.1,28.99 -9.63,42.87 -17.21,36.6 -53.57,58.07 -91.52,58.07 -14.41,0 -29.05,-3.1 -42.95,-9.63 -20.35,-9.57 -35.91,-25.11 -45.83,-43.5 -5.45,1.09 -11,1.74 -16.6,1.93 -1.14,0.04 -2.28,0.06 -3.43,0.06 -14.33,0 -28.88,-3.04 -42.71,-9.55 -4.37,-2.06 -8.52,-4.38 -12.45,-6.96 -28.96,-18.95 -45.62,-51.13 -45.63,-84.53 v 0 c 0,-14.42 3.09,-29.07 9.63,-42.98 10.38,-22.06 27.72,-38.6 48.16,-48.29 -2.07,-8.13 -3.14,-16.54 -3.14,-25.03 v 0 m -319.41,213.46 c 0.02,-7.56 1.66,-15.24 5.09,-22.54 9.1,-19.35 28.3,-30.7 48.35,-30.7 7.61,0 15.34,1.64 22.68,5.09 19.4,9.12 30.76,28.41 30.71,48.52 v 0 c -0.02,7.56 -1.65,15.25 -5.09,22.55 -9.09,19.34 -28.31,30.68 -48.36,30.68 -7.62,0 -15.35,-1.64 -22.7,-5.09 -19.39,-9.12 -30.74,-28.41 -30.68,-48.51 v 0 m 536.3,252.21 c 0.02,-7.57 1.66,-15.25 5.09,-22.54 9.1,-19.36 28.31,-30.7 48.36,-30.7 7.61,0 15.34,1.63 22.69,5.09 19.39,9.12 30.75,28.4 30.69,48.51 v 0 c -0.02,7.56 -1.66,15.24 -5.09,22.54 -9.09,19.34 -28.31,30.69 -48.36,30.69 -7.61,0 -15.35,-1.64 -22.7,-5.1 -19.38,-9.11 -30.74,-28.39 -30.68,-48.49 v 0"
         id="path348" /></clipPath><clipPath
       clipPathUnits="userSpaceOnUse"
       id="clipPath362"><path
         d="m 3869.89,4184.7 339.99,496.27 -46.82,-621.52 c 32.33,31.88 60.33,49.1 60.33,49.1 0,0 67.6,728.58 58.94,746.98 -8.65,18.41 -423.68,-613.67 -423.68,-613.67 0,0 7.01,-22.46 11.24,-57.16 z"
         id="path360" /></clipPath><linearGradient
       x1="0"
       y1="0"
       x2="1"
       y2="0"
       gradientUnits="userSpaceOnUse"
       gradientTransform="matrix(-580.736,-414.089,-414.089,580.736,4349.86,4548.81)"
       spreadMethod="pad"
       id="linearGradient368"><stop
         style="stop-opacity:1;stop-color:#ffffff"
         offset="0"
         id="stop364" /><stop
         style="stop-opacity:1;stop-color:#231f20"
         offset="1"
         id="stop366" /></linearGradient><clipPath
       clipPathUnits="userSpaceOnUse"
       id="clipPath378"><path
         d="m 4328.41,3222.4 c 25.05,-28.36 37.9,-51.1 37.9,-51.1 0,0 747.14,-53.26 763.11,-51.37 15.98,1.88 -632.2,433.23 -632.2,433.23 -17.99,-6.31 -39.01,-12.9 -62.08,-17.75 l 526.97,-349.48 z"
         id="path376" /></clipPath><linearGradient
       x1="0"
       y1="0"
       x2="1"
       y2="0"
       gradientUnits="userSpaceOnUse"
       gradientTransform="matrix(-855.439,-140.435,-140.435,855.439,5026.04,3371.47)"
       spreadMethod="pad"
       id="linearGradient384"><stop
         style="stop-opacity:1;stop-color:#ffffff"
         offset="0"
         id="stop380" /><stop
         style="stop-opacity:1;stop-color:#231f20"
         offset="1"
         id="stop382" /></linearGradient><clipPath
       clipPathUnits="userSpaceOnUse"
       id="clipPath394"><path
         d="m 3800.38,2969.79 -352.4,-525.4 40.17,632.35 c -24.02,-24.75 -42.91,-37.95 -42.91,-37.95 0,0 -69.42,-757.56 -56.36,-758.43 13.06,-0.9 422.19,622.8 422.19,622.8 0,0 -7.26,26.62 -10.69,66.63 z"
         id="path392" /></clipPath><linearGradient
       x1="0"
       y1="0"
       x2="1"
       y2="0"
       gradientUnits="userSpaceOnUse"
       gradientTransform="matrix(288.744,-614.012,-614.012,-288.744,3401.3,3035.88)"
       spreadMethod="pad"
       id="linearGradient400"><stop
         style="stop-opacity:1;stop-color:#ffffff"
         offset="0"
         id="stop396" /><stop
         style="stop-opacity:1;stop-color:#231f20"
         offset="1"
         id="stop398" /></linearGradient><clipPath
       clipPathUnits="userSpaceOnUse"
       id="clipPath410"><path
         d="m 3251.06,3611.6 -539.39,350.79 630.24,-46.38 c -28.03,25.92 -43.3,47.04 -43.3,47.04 l -757.23,59.75 636.95,-425.38 c 0,0 29.46,9.73 72.73,14.18 z"
         id="path408" /></clipPath><linearGradient
       x1="0"
       y1="0"
       x2="1"
       y2="0"
       gradientUnits="userSpaceOnUse"
       gradientTransform="matrix(286.874,-610.035,-610.035,-286.874,2848.59,4167.27)"
       spreadMethod="pad"
       id="linearGradient416"><stop
         style="stop-opacity:1;stop-color:#ffffff"
         offset="0"
         id="stop412" /><stop
         style="stop-opacity:1;stop-color:#231f20"
         offset="1"
         id="stop414" /></linearGradient><clipPath
       clipPathUnits="userSpaceOnUse"
       id="clipPath430"><path
         d="m 7418,4204 h 2914 V 6895 H 7418 Z"
         id="path428" /></clipPath><clipPath
       clipPathUnits="userSpaceOnUse"
       id="clipPath436"><path
         d="m 8627.17,4204.54 c 0,0 -9.36,4.78 -25.46,14.4 -98.79,59.01 -451.86,299.99 -461.87,735.18 -0.14,6.14 -0.21,12.31 -0.22,18.53 -0.09,193.79 67.8,425.16 254.45,695.18 v 0 0 0 0 c 0,0 -108.45,35.12 -280.45,35.12 -173.88,0 -412.68,-35.91 -669.86,-180.35 -8.38,-4.71 -16.81,-9.55 -25.22,-14.49 0,0 270.33,667.68 1059.97,667.68 119.4,0 250.69,-15.26 394.69,-50.41 v 0 0 0 0 c 0,0 -25.89,604.31 -466.18,768.33 0,0 15.35,1.08 42.42,1.08 189.43,0 951.44,-52.9 1019.44,-898.93 0,0 539.52,21.61 634.52,595.69 0,0 106.4,-174.8 106.3,-412.66 0,-276.01 -143.4,-636.92 -762.41,-908.18 v 0 0 0 0 c 0,0 236.16,-384.84 776.71,-384.84 34.8,0 70.9,1.6 108.2,4.99 0,0 -304.3,-226.65 -706.42,-226.65 -261.49,0 -564.4,95.87 -851.85,412.25 0,0 -233.31,-220.89 -233.17,-540.36 v 0 c 0.05,-101.83 23.81,-213.67 86.41,-331.56 m 215.79,1435.24 v 0 c 0,-77.47 62.82,-140.29 140.28,-140.29 77.49,0 140.29,62.82 140.29,140.29 v 0 0 0 0 c 0,77.46 -62.8,140.29 -140.29,140.29 -77.46,0 -140.28,-62.83 -140.28,-140.29 v 0 0 0"
         id="path434" /></clipPath><clipPath
       clipPathUnits="userSpaceOnUse"
       id="clipPath448"><path
         d="m 7418.54,5508.11 c 117.97,69.23 232.34,115.18 338.82,145.06 238.48,320.48 646.89,467.53 825.27,518.83 -870.12,62.05 -1164.09,-663.89 -1164.09,-663.89 z"
         id="path446" /></clipPath><linearGradient
       x1="0"
       y1="0"
       x2="1"
       y2="0"
       gradientUnits="userSpaceOnUse"
       gradientTransform="matrix(437.747,-320.493,-320.493,-437.747,7696.98,6062.34)"
       spreadMethod="pad"
       id="linearGradient454"><stop
         style="stop-opacity:1;stop-color:#ffffff"
         offset="0"
         id="stop450" /><stop
         style="stop-opacity:1;stop-color:#231f20"
         offset="1"
         id="stop452" /></linearGradient><clipPath
       clipPathUnits="userSpaceOnUse"
       id="clipPath464"><path
         d="m 8407.02,6893.71 c 135.11,-50.34 231.1,-142.19 299.39,-245.26 404.2,-97.86 655.44,-389.07 741.7,-504.95 -161.12,811.41 -1041.09,750.21 -1041.09,750.21 z"
         id="path462" /></clipPath><linearGradient
       x1="0"
       y1="0"
       x2="1"
       y2="0"
       gradientUnits="userSpaceOnUse"
       gradientTransform="matrix(-39.0829,-726.943,-726.943,39.0829,8964.81,7211.46)"
       spreadMethod="pad"
       id="linearGradient470"><stop
         style="stop-opacity:1;stop-color:#ffffff"
         offset="0"
         id="stop466" /><stop
         style="stop-opacity:1;stop-color:#231f20"
         offset="1"
         id="stop468" /></linearGradient><clipPath
       clipPathUnits="userSpaceOnUse"
       id="clipPath480"><path
         d="m 10103.4,6591.55 c -20.8,-126 -63.1,-225.36 -116.42,-303.76 -13.73,-306.36 -269.53,-757.43 -380.78,-940.03 945.6,506.65 497.2,1243.79 497.2,1243.79 z"
         id="path478" /></clipPath><linearGradient
       x1="0"
       y1="0"
       x2="1"
       y2="0"
       gradientUnits="userSpaceOnUse"
       gradientTransform="matrix(-719.169,179.792,179.792,719.169,10253.1,5870.07)"
       spreadMethod="pad"
       id="linearGradient486"><stop
         style="stop-opacity:1;stop-color:#ffffff"
         offset="0"
         id="stop482" /><stop
         style="stop-opacity:1;stop-color:#231f20"
         offset="1"
         id="stop484" /></linearGradient><clipPath
       clipPathUnits="userSpaceOnUse"
       id="clipPath496"><path
         d="M 0,0 H 10332 V 7060 H 0 Z"
         id="path494" /></clipPath><clipPath
       clipPathUnits="userSpaceOnUse"
       id="clipPath502"><path
         d="m 10332.2,4890.86 c -168.2,-15.31 -310.2,6.08 -428.12,45.07 -322.79,-124.41 -751.94,-58.18 -974.18,-9.05 686.63,-568.83 1402.3,-36.02 1402.3,-36.02 z"
         id="path500" /></clipPath><linearGradient
       x1="0"
       y1="0"
       x2="1"
       y2="0"
       gradientUnits="userSpaceOnUse"
       gradientTransform="matrix(1402.27,0,0,-1402.27,8929.9,4800.15)"
       spreadMethod="pad"
       id="linearGradient508"><stop
         style="stop-opacity:1;stop-color:#ffffff"
         offset="0"
         id="stop504" /><stop
         style="stop-opacity:1;stop-color:#231f20"
         offset="1"
         id="stop506" /></linearGradient><clipPath
       clipPathUnits="userSpaceOnUse"
       id="clipPath518"><path
         d="m 8627.17,4204.54 c -67.28,126.7 -89.46,246.25 -85.79,354.06 -232.86,252.64 -250.45,729.56 -244.51,953.14 -492.27,-886.04 330.3,-1307.2 330.3,-1307.2 z"
         id="path516" /></clipPath><linearGradient
       x1="0"
       y1="0"
       x2="1"
       y2="0"
       gradientUnits="userSpaceOnUse"
       gradientTransform="matrix(695.7,625.349,625.349,-695.7,8082.71,4517.19)"
       spreadMethod="pad"
       id="linearGradient524"><stop
         style="stop-opacity:1;stop-color:#ffffff"
         offset="0"
         id="stop520" /><stop
         style="stop-opacity:1;stop-color:#231f20"
         offset="1"
         id="stop522" /></linearGradient><clipPath
       clipPathUnits="userSpaceOnUse"
       id="clipPath538"><path
         d="m 7709.96,3758.4 v 0 c 0,0 469.01,53.58 572.36,405.41 0,0 5.44,-38.29 5.44,-98.99 0,-0.15 0,-0.29 0,-0.44 v 0.6 c -0.01,60.61 -5.44,98.83 -5.44,98.83 -103.35,-351.83 -572.36,-405.41 -572.36,-405.41"
         id="path536" /></clipPath><linearGradient
       x1="0"
       y1="0"
       x2="1"
       y2="0"
       gradientUnits="userSpaceOnUse"
       gradientTransform="matrix(161.157,-2268.29,-2268.29,-161.157,7181.28,4859.01)"
       spreadMethod="pad"
       id="linearGradient544"><stop
         style="stop-opacity:1;stop-color:#ffffff"
         offset="0"
         id="stop540" /><stop
         style="stop-opacity:1;stop-color:#231f20"
         offset="1"
         id="stop542" /></linearGradient><clipPath
       clipPathUnits="userSpaceOnUse"
       id="clipPath554"><path
         d="m 6829.57,2554.3 c 0,0 -14.65,17.01 -36.36,48.21 -61.95,89.02 -181.3,293.54 -181.24,547.7 0.05,190.5 67.2,408.9 275.9,627.47 v 0 0 0 0 c 0,0 -166.88,152.93 -396.85,152.93 -89.21,0 -187.93,-23.02 -290.05,-86.91 0,0 180.16,423.71 618.23,423.71 141.54,0 310.03,-44.25 508.05,-161.31 0,0 14.29,57.87 14.27,152.28 v 0 c -0.03,141.38 -32.18,364.71 -192.57,598.34 0,0 581.42,-188.68 581.26,-869.49 -0.02,-70.83 -6.33,-147 -20.25,-228.83 v 0 0 0 0 c 0,0 469.01,53.58 572.36,405.41 0,0 5.43,-38.22 5.44,-98.83 v -0.6 c -0.07,-210.38 -65.41,-688.51 -645.68,-776.87 v 0 0 0 0 c 0,0 46.65,-418.87 498.84,-461.03 0,0 -137.04,-97.39 -329.99,-106.46 -9.45,-0.44 -19.04,-0.68 -28.74,-0.68 -209.35,0 -476.61,108.72 -705.85,544.86 0,0 -8.08,-5.79 -21.38,-17.4 -61.95,-54.12 -237.27,-234.82 -237.45,-547.1 v 0 c -0.02,-45.65 3.7,-94.11 12.06,-145.4 m 398.93,1091.54 c 0,-2.56 0.1,-5.14 0.28,-7.73 4.1,-57.68 52.17,-101.74 109.09,-101.74 2.61,0 5.24,0.09 7.88,0.28 57.71,4.1 101.82,52.25 101.75,109.25 v 0 c -0.01,2.56 -0.1,5.14 -0.28,7.73 -4.09,57.67 -52.18,101.73 -109.11,101.73 -2.6,0 -5.23,-0.09 -7.87,-0.28 -5,-0.36 -9.9,-1.04 -14.68,-2.04 -50.35,-10.47 -87.12,-55.15 -87.06,-107.2 v 0"
         id="path552" /></clipPath><clipPath
       clipPathUnits="userSpaceOnUse"
       id="clipPath566"><path
         d="m 7148.95,4856.72 c 60.43,-88.01 102.51,-174.5 131.68,-255.75 262.68,-167.93 399.75,-477.75 449.54,-613.77 0.18,680.82 -581.22,869.52 -581.22,869.52 z"
         id="path564" /></clipPath><linearGradient
       x1="0"
       y1="0"
       x2="1"
       y2="0"
       gradientUnits="userSpaceOnUse"
       gradientTransform="matrix(-225.289,-358.508,-358.508,225.289,7595.8,4670.6)"
       spreadMethod="pad"
       id="linearGradient572"><stop
         style="stop-opacity:1;stop-color:#ffffff"
         offset="0"
         id="stop568" /><stop
         style="stop-opacity:1;stop-color:#231f20"
         offset="1"
         id="stop570" /></linearGradient><clipPath
       clipPathUnits="userSpaceOnUse"
       id="clipPath582"><path
         d="m 8282.32,4163.81 c -31.71,-107.95 -97.92,-187.77 -174.38,-246.63 -53.82,-320.08 -266.64,-531.78 -352.07,-605.35 622.76,170.31 526.45,851.98 526.45,851.98 z"
         id="path580" /></clipPath><linearGradient
       x1="0"
       y1="0"
       x2="1"
       y2="0"
       gradientUnits="userSpaceOnUse"
       gradientTransform="matrix(-568.092,-9.78179,-9.78179,568.092,8560.55,3747.15)"
       spreadMethod="pad"
       id="linearGradient588"><stop
         style="stop-opacity:1;stop-color:#ffffff"
         offset="0"
         id="stop584" /><stop
         style="stop-opacity:1;stop-color:#231f20"
         offset="1"
         id="stop586" /></linearGradient><clipPath
       clipPathUnits="userSpaceOnUse"
       id="clipPath598"><path
         d="m 8140.92,2826.48 c -99.24,9.23 -178.94,36.66 -242.92,73.81 -239.27,-6.25 -604.57,167.94 -752.89,244.44 446.74,-708.12 995.81,-318.25 995.81,-318.25 z"
         id="path596" /></clipPath><linearGradient
       x1="0"
       y1="0"
       x2="1"
       y2="0"
       gradientUnits="userSpaceOnUse"
       gradientTransform="matrix(100.186,569.794,569.794,-100.186,7587.52,2670.02)"
       spreadMethod="pad"
       id="linearGradient604"><stop
         style="stop-opacity:1;stop-color:#ffffff"
         offset="0"
         id="stop600" /><stop
         style="stop-opacity:1;stop-color:#231f20"
         offset="1"
         id="stop602" /></linearGradient><clipPath
       clipPathUnits="userSpaceOnUse"
       id="clipPath614"><path
         d="m 6829.57,2554.3 c -21.22,130.04 -12.42,241.8 11.41,335.77 -114.7,244.42 -86.89,582.16 -60.92,757.89 -404.86,-566 49.51,-1093.66 49.51,-1093.66 z"
         id="path612" /></clipPath><linearGradient
       x1="0"
       y1="0"
       x2="1"
       y2="0"
       gradientUnits="userSpaceOnUse"
       gradientTransform="matrix(77.5609,-1091.67,-1091.67,-77.5609,6681.39,3640.95)"
       spreadMethod="pad"
       id="linearGradient620"><stop
         style="stop-opacity:1;stop-color:#ffffff"
         offset="0"
         id="stop616" /><stop
         style="stop-opacity:1;stop-color:#231f20"
         offset="1"
         id="stop618" /></linearGradient><clipPath
       clipPathUnits="userSpaceOnUse"
       id="clipPath630"><path
         d="m 6200.97,3843.7 c 94.9,59.37 186.74,83.26 270.88,86.37 183.8,195.26 554.13,235.33 728.51,243.07 -717.02,334.22 -999.39,-329.44 -999.39,-329.44 z"
         id="path628" /></clipPath><linearGradient
       x1="0"
       y1="0"
       x2="1"
       y2="0"
       gradientUnits="userSpaceOnUse"
       gradientTransform="matrix(525.319,-507.019,-507.019,-525.319,6414.25,4284.84)"
       spreadMethod="pad"
       id="linearGradient636"><stop
         style="stop-opacity:1;stop-color:#ffffff"
         offset="0"
         id="stop632" /><stop
         style="stop-opacity:1;stop-color:#231f20"
         offset="1"
         id="stop634" /></linearGradient><clipPath
       clipPathUnits="userSpaceOnUse"
       id="clipPath650"><path
         d="m 5167.7,123.371 -299.32,735.129 -716.27,-220 -18.88,-5.801 325.56,666.891 -750.86,325.56 803.38,278.32 -299.34,677.32 740.43,-338.64 325.56,685.2 278.32,-687.83 756.14,236.23 -330.84,-656.32 782.36,-346.56 -777.09,-231.08 315.05,-735.118 -17.27,7.41 -765.15,328.617 -351.78,-719.328 m -76.16,1401.969 v 0 c 0,-79.71 64.64,-144.36 144.4,-144.36 79.75,0 144.39,64.65 144.39,144.36 v 0 0 0 0 c 0,79.75 -64.64,144.39 -144.39,144.39 -79.76,0 -144.4,-64.64 -144.4,-144.39 v 0 0 0"
         id="path648" /></clipPath><clipPath
       clipPathUnits="userSpaceOnUse"
       id="clipPath662"><path
         d="m 5556.28,2239.52 -278.32,687.83 -325.56,-685.2 319.89,160.99 z"
         id="path660" /></clipPath><linearGradient
       x1="0"
       y1="0"
       x2="1"
       y2="0"
       gradientUnits="userSpaceOnUse"
       gradientTransform="matrix(226.479,0,0,-226.479,5121.71,2583.43)"
       spreadMethod="pad"
       id="linearGradient668"><stop
         style="stop-opacity:1;stop-color:#ffffff"
         offset="0"
         id="stop664" /><stop
         style="stop-opacity:1;stop-color:#231f20"
         offset="1"
         id="stop666" /></linearGradient><clipPath
       clipPathUnits="userSpaceOnUse"
       id="clipPath678"><path
         d="m 5981.58,1819.43 330.84,656.32 -756.14,-236.23 340.57,-135.2 z"
         id="path676" /></clipPath><linearGradient
       x1="0"
       y1="0"
       x2="1"
       y2="0"
       gradientUnits="userSpaceOnUse"
       gradientTransform="matrix(118.164,-246.172,-246.172,-118.164,5883.12,2464.37)"
       spreadMethod="pad"
       id="linearGradient684"><stop
         style="stop-opacity:1;stop-color:#ffffff"
         offset="0"
         id="stop680" /><stop
         style="stop-opacity:1;stop-color:#231f20"
         offset="1"
         id="stop682" /></linearGradient><clipPath
       clipPathUnits="userSpaceOnUse"
       id="clipPath694"><path
         d="m 6763.95,1472.87 -782.37,346.56 158.18,-330.08 -152.9,-247.56 z"
         id="path692" /></clipPath><linearGradient
       x1="0"
       y1="0"
       x2="1"
       y2="0"
       gradientUnits="userSpaceOnUse"
       gradientTransform="matrix(-19.7038,-315.103,-315.103,19.7038,6384.33,1831.01)"
       spreadMethod="pad"
       id="linearGradient700"><stop
         style="stop-opacity:1;stop-color:#ffffff"
         offset="0"
         id="stop696" /><stop
         style="stop-opacity:1;stop-color:#231f20"
         offset="1"
         id="stop698" /></linearGradient><clipPath
       clipPathUnits="userSpaceOnUse"
       id="clipPath710"><path
         d="m 5986.86,1241.79 5.02,1.52 c -6.49,6.82 -10.3,10.82 -10.3,10.82 l -77.03,-350.86 -385.07,-60.571 782.41,-336.027 z"
         id="path708" /></clipPath><linearGradient
       x1="0"
       y1="0"
       x2="1"
       y2="0"
       gradientUnits="userSpaceOnUse"
       gradientTransform="matrix(-177.252,-305.272,-305.272,177.252,6087.76,979.66)"
       spreadMethod="pad"
       id="linearGradient716"><stop
         style="stop-opacity:1;stop-color:#ffffff"
         offset="0"
         id="stop712" /><stop
         style="stop-opacity:1;stop-color:#231f20"
         offset="1"
         id="stop714" /></linearGradient><clipPath
       clipPathUnits="userSpaceOnUse"
       id="clipPath726"><path
         d="M 4868.38,858.5 5167.7,123.371 5519.48,842.699 5183.57,643.012 Z"
         id="path724" /></clipPath><linearGradient
       x1="0"
       y1="0"
       x2="1"
       y2="0"
       gradientUnits="userSpaceOnUse"
       gradientTransform="matrix(-462.821,-9.85228,-9.85228,462.821,5342.78,497.85)"
       spreadMethod="pad"
       id="linearGradient732"><stop
         style="stop-opacity:1;stop-color:#ffffff"
         offset="0"
         id="stop728" /><stop
         style="stop-opacity:1;stop-color:#231f20"
         offset="1"
         id="stop730" /></linearGradient><clipPath
       clipPathUnits="userSpaceOnUse"
       id="clipPath742"><path
         d="M 4458.79,1299.59 4133.23,632.699 4868.38,858.5 4555.08,988.059 Z"
         id="path740" /></clipPath><linearGradient
       x1="0"
       y1="0"
       x2="1"
       y2="0"
       gradientUnits="userSpaceOnUse"
       gradientTransform="matrix(196.937,-285.561,-285.561,-196.937,4204.27,1175.58)"
       spreadMethod="pad"
       id="linearGradient748"><stop
         style="stop-opacity:1;stop-color:#ffffff"
         offset="0"
         id="stop744" /><stop
         style="stop-opacity:1;stop-color:#231f20"
         offset="1"
         id="stop746" /></linearGradient><clipPath
       clipPathUnits="userSpaceOnUse"
       id="clipPath758"><path
         d="m 4504.63,1918.55 6.68,-15.08 -803.38,-278.32 750.86,-325.56 -167.78,342.06 229.42,269.89 c 0,0 -6.24,2.77 -15.8,7.01 z"
         id="path756" /></clipPath><linearGradient
       x1="0"
       y1="0"
       x2="1"
       y2="0"
       gradientUnits="userSpaceOnUse"
       gradientTransform="matrix(49.2305,-531.741,-531.741,-49.2305,4089.48,2035.09)"
       spreadMethod="pad"
       id="linearGradient764"><stop
         style="stop-opacity:1;stop-color:#ffffff"
         offset="0"
         id="stop760" /><stop
         style="stop-opacity:1;stop-color:#231f20"
         offset="1"
         id="stop762" /></linearGradient><clipPath
       clipPathUnits="userSpaceOnUse"
       id="clipPath774"><path
         d="m 4211.97,2580.79 299.34,-677.32 -0.73,-0.27 1.08,-2 93.58,297.59 347.16,43.36 z"
         id="path772" /></clipPath><linearGradient
       x1="0"
       y1="0"
       x2="1"
       y2="0"
       gradientUnits="userSpaceOnUse"
       gradientTransform="matrix(-265.876,-256.031,-256.031,265.876,4608.97,2437.27)"
       spreadMethod="pad"
       id="linearGradient780"><stop
         style="stop-opacity:1;stop-color:#ffffff"
         offset="0"
         id="stop776" /><stop
         style="stop-opacity:1;stop-color:#231f20"
         offset="1"
         id="stop778" /></linearGradient><clipPath
       clipPathUnits="userSpaceOnUse"
       id="clipPath794"><path
         d="m 8803.81,277.398 -174.92,659.821 -73.06,-38.438 73.06,38.438 11.15,182.121 v 0 0 c -67.78,22.41 -130.05,56.83 -184.26,100.86 l -97.39,-60.76 1,-82.55 -1,82.55 -681.25,-185.381 538.27,477.451 -78.9,44.72 -667.92,-615.609 667.92,615.609 78.9,-44.72 59.41,22.55 v 0 0 c -22.55,62.13 -34.89,129.16 -34.89,199.08 0,71.27 12.83,139.54 36.22,202.68 v 0 0 0 l -60.74,23.05 -547.99,475.19 690.97,-183.12 100.3,-62.57 c 61.53,49.34 133.25,86.44 211.54,107.68 v 0 0 0 l -11.34,185.31 -73.06,38.45 251.86,876.71 223.01,-880.55 -76.9,-48.06 -22.61,-167.99 v 0 0 c 93.87,-22.76 178.82,-68.2 248.8,-130.22 l 130.23,81.24 656.92,156.45 -513.94,-448.52 -106.8,-40.53 v 0 0 c 19.48,-58.22 30.19,-120.43 30.19,-185.2 0,-63.41 -10.25,-124.39 -28.96,-181.55 v 0 0 0 l 105.57,-40.08 78.9,44.72 667.9,-615.609 -667.9,615.609 -78.9,-44.72 497.28,-440.78 -640.26,148.71 -1,-82.55 1,82.55 -127.49,79.53 c -77.22,-69.32 -173.05,-118.27 -279.08,-138.59 v 0 0 0 l 20.15,-149.7 76.9,-48.071 -76.9,48.071 -149.99,-673.282 M 8663.27,1673.14 v 0 c 0,-88.36 71.63,-159.99 159.99,-159.99 88.36,0 159.99,71.63 159.99,159.99 v 0 0 0 0 c 0,88.36 -71.63,159.99 -159.99,159.99 -88.36,0 -159.99,-71.63 -159.99,-159.99 v 0 0 0"
         id="path792" /></clipPath><clipPath
       clipPathUnits="userSpaceOnUse"
       id="clipPath808"><path
         d="m 9562.1,1854.16 -78.9,44.71 513.94,448.52 -656.92,-156.45 -1,82.55 890.78,196.27 -667.9,-615.6"
         id="path806" /></clipPath><clipPath
       clipPathUnits="userSpaceOnUse"
       id="clipPath820"><path
         d="m 10230,880.621 -31.4,6.93 -859.11,189.279 -0.27,0.06 1,82.55 640.26,-148.71 -497.28,440.78 78.9,44.72 667.9,-615.609"
         id="path818" /></clipPath><clipPath
       clipPathUnits="userSpaceOnUse"
       id="clipPath832"><path
         d="m 8807.68,22.0703 -251.85,876.7107 73.06,38.438 174.92,-659.821 149.99,673.282 76.9,-48.071 -223.02,-880.5387"
         id="path830" /></clipPath><clipPath
       clipPathUnits="userSpaceOnUse"
       id="clipPath844"><path
         d="m 7468.59,880.621 667.92,615.609 78.9,-44.72 -538.27,-477.451 681.25,185.381 1,-82.55 -0.26,-0.06 -859.07,-189.279 -31.47,-6.93"
         id="path842" /></clipPath><clipPath
       clipPathUnits="userSpaceOnUse"
       id="clipPath856"><path
         d="m 8136.51,1854.16 -667.92,615.6 890.8,-196.27 -1,-82.55 -690.97,183.12 547.99,-475.19 -78.9,-44.71"
         id="path854" /></clipPath><filter
       style="color-interpolation-filters:sRGB"
       inkscape:label="Drop Shadow"
       id="filter20693"
       x="-0.051660576"
       y="-0.14639726"
       width="1.1217714"
       height="1.3398508"><feFlood
         flood-opacity="0.498039"
         flood-color="rgb(0,0,0)"
         result="flood"
         id="feFlood20683" /><feComposite
         in="flood"
         in2="SourceGraphic"
         operator="in"
         result="composite1"
         id="feComposite20685" /><feGaussianBlur
         in="composite1"
         stdDeviation="7"
         result="blur"
         id="feGaussianBlur20687" /><feOffset
         dx="6"
         dy="5.4"
         result="offset"
         id="feOffset20689" /><feComposite
         in="SourceGraphic"
         in2="offset"
         operator="over"
         result="composite2"
         id="feComposite20691" /></filter><filter
       style="color-interpolation-filters:sRGB"
       inkscape:label="Drop Shadow"
       id="filter20723"
       x="-0.22861799"
       y="-0.51636699"
       width="1.5388853"
       height="2.1987091"><feFlood
         flood-opacity="0.498039"
         flood-color="rgb(0,0,0)"
         result="flood"
         id="feFlood20713" /><feComposite
         in="flood"
         in2="SourceGraphic"
         operator="in"
         result="composite1"
         id="feComposite20715" /><feGaussianBlur
         in="composite1"
         stdDeviation="7"
         result="blur"
         id="feGaussianBlur20717" /><feOffset
         dx="6"
         dy="5.4"
         result="offset"
         id="feOffset20719" /><feComposite
         in="SourceGraphic"
         in2="offset"
         operator="over"
         result="composite2"
         id="feComposite20721" /></filter></defs><sodipodi:namedview
     id="namedview4"
     pagecolor="#ffffff"
     bordercolor="#666666"
     borderopacity="1.0"
     inkscape:pageshadow="2"
     inkscape:pageopacity="0.0"
     inkscape:pagecheckerboard="0"
     showgrid="false"
     width="645px"
     inkscape:zoom="0.75371578"
     inkscape:cx="187.73655"
     inkscape:cy="342.3041"
     inkscape:window-width="1366"
     inkscape:window-height="740"
     inkscape:window-x="0"
     inkscape:window-y="0"
     inkscape:window-maximized="1"
     inkscape:current-layer="g21342" /><g
     id="g8"
     inkscape:groupmode="layer"
     inkscape:label="shuriken"
     transform="matrix(1.3333333,0,0,-1.3333333,0,941.28)"><g
       id="g21342"
       transform="translate(-59.475176)"><g
         aria-label="Anime"
         transform="matrix(1,0,0,-1,-3.0000162,137.65364)"
         id="text3469"
         style="font-size:150px;line-height:1.25;stroke-width:0.75;filter:url(#filter20693)"><path
           d="m 88.575192,-451.75013 q -5.1,-1.5 -7.2,-4.8 -2.1,-3.45 -2.1,-8.55 0,-6 3.15,-16.65 l 1.2,-4.5 q 4.5,-18.9 12.9,-44.1 3.3,-9.9 9.149998,-15.3 5.85,-5.55 15.75,-5.85 6.15,-0.15 10.05,3.3 4.05,3.45 6.15,8.25 2.25,4.8 4.8,12.75 l 1.8,5.85 17.55,49.35 q 1.8,4.95 1.8,7.65 0,4.95 -4.65,8.7 -4.05,3.15 -7.65,3.15 -4.65,0 -7.95,-4.95 -1.2,-1.5 -2.1,-4.2 -0.75,-2.7 -0.9,-3.3 -1.2,-3.75 -2.25,-6.15 -1.05,-2.4 -2.55,-3.75 -0.3,-0.3 -6.15,-0.75 -5.85,-0.45 -10.8,-0.45 -6.3,0 -7.2,0.75 -1.5,1.35 -2.25,3.75 -0.75,2.4 -1.5,6.45 -0.75,3.9 -1.5,6.3 -0.6,2.25 -1.8,3.75 -3.3,4.2 -9.899998,4.2 -3.15,0 -5.85,-0.9 z m 37.799998,-46.35 q -3.15,-9.3 -3.9,-12 l -4.2,13.5 z"
           style="font-family:'NF-Le petit cochon';-inkscape-font-specification:'NF-Le petit cochon'"
           id="path1072" /><path
           d="m 224.02505,-440.50013 q -3.6,-4.2 -5.25,-10.2 -1.65,-6 -3.3,-15.6 l -0.9,-5.55 q -0.9,-4.65 -1.65,-7.05 -0.75,-2.55 -2.7,-4.5 -1.8,-1.95 -5.25,-1.95 -3.45,0 -6.45,1.95 -3,1.8 -6.15,4.95 -2.7,2.4 -3.3,4.35 -0.45,1.8 -0.45,4.05 0,2.25 0,3.15 -0.3,5.55 -2.55,10.8 -2.1,5.1 -5.85,5.1 -2.7,0 -6.15,-3.45 -6,-6 -6,-21.15 0,-1.05 0.45,-9.6 0.6,-9.45 2.55,-17.25 1.95,-7.95 6.6,-13.05 2.85,-3.3 5.4,-3.3 3.75,0 5.55,6.75 1.8,6.6 1.95,13.2 4.65,-4.65 10.2,-7.2 5.55,-2.7 10.8,-2.7 5.25,0 9.45,2.85 4.35,2.85 7.2,8.85 7.8,16.65 7.8,48.15 0,4.5 -1.8,8.25 -1.65,3.9 -4.5,3.9 -2.55,0 -5.7,-3.75 z"
           style="font-family:'NF-Le petit cochon';-inkscape-font-specification:'NF-Le petit cochon'"
           id="path1074" /><path
           d="m 252.97501,-452.50013 q -2.25,1.65 -4.35,1.65 -3.3,0 -5.1,-4.05 -1.65,-4.2 -2.1,-7.65 -0.3,-3.45 -0.75,-10.2 l -0.15,-4.65 q 0,-2.7 0.15,-6.3 0.15,-3.75 0.3,-5.7 0.3,-2.7 0.3,-3.9 0,-2.25 0.15,-3.45 0,-5.25 0.6,-8.55 0.6,-3.45 2.85,-5.55 3,-3 5.55,-3 4.35,0 5.85,6.6 1.65,6.45 2.4,15.3 0.45,3.75 0.45,7.5 0,7.5 -1.5,16.95 l -0.45,3.15 q -0.45,4.5 -1.35,7.5 -0.75,2.85 -2.85,4.35 z m -10.95,-69.6 q -1.2,-2.25 -1.2,-4.8 0,-3.45 1.95,-5.85 2.1,-2.55 4.95,-2.55 3.3,0 6,3.9 1.8,2.55 1.8,5.55 0,3.3 -2.25,5.7 -2.25,2.4 -5.1,2.4 -3.9,0 -6.15,-4.35 z"
           style="font-family:'NF-Le petit cochon';-inkscape-font-specification:'NF-Le petit cochon'"
           id="path1076" /><path
           d="m 339.97492,-443.80013 q -3.9,-3.6 -6.15,-10.05 -2.1,-6.6 -4.35,-17.25 -0.9,-4.5 -1.8,-7.5 0.15,1.05 -6.6,5.7 -6.75,4.65 -8.1,5.25 -2.55,0.75 -3.9,0.75 -3,0 -4.95,-1.95 -1.95,-1.95 -3,-4.2 -0.9,-2.25 -2.7,-7.2 -2.25,-6.45 -6.15,-6.45 -2.55,0 -6.75,3.45 -3.45,3 -4.5,7.5 -1.05,4.35 -1.35,11.55 -0.3,5.85 -0.75,8.55 -1.2,7.2 -5.1,7.2 -2.1,0 -4.35,-2.4 -2.25,-2.55 -3.45,-6.45 -2.4,-8.55 -2.4,-20.55 0,-6.75 0.45,-12.75 l 0.15,-3.15 q 0.3,-8.7 1.5,-14.7 1.2,-6 4.8,-9.3 2.7,-2.55 5.25,-2.55 2.85,0 4.65,3 1.95,3 2.7,7.2 0.9,4.05 0.6,7.05 2.4,-3 5.7,-4.65 3.3,-1.65 6.9,-1.65 3.3,0 6.3,1.5 5.1,2.4 7.95,9 0.6,1.2 1.2,3.9 0.9,4.05 2.1,5.4 4.65,-3 7.8,-4.5 3.3,-1.65 6.6,-1.65 4.95,0 9.15,4.35 7.8,8.25 11.4,29.1 0.6,3 0.6,8.55 0,12.6 -4.65,12.6 -1.8,0 -4.8,-2.7 z"
           style="font-family:'NF-Le petit cochon';-inkscape-font-specification:'NF-Le petit cochon'"
           id="path1078" /><path
           d="m 371.77482,-457.60013 q -9,-1.65 -13.5,-8.4 -4.35,-6.9 -4.35,-16.35 0,-7.65 2.7,-15 2.7,-7.5 7.2,-12.3 3.9,-4.2 9.45,-6.6 5.55,-2.55 11.4,-2.55 3.3,0 6.45,0.9 5.4,1.65 9.3,6.45 4.05,4.65 4.05,10.05 0,4.65 -3.3,8.4 -2.55,2.85 -6.45,4.35 -3.75,1.5 -8.85,2.55 l -3.6,0.45 q -4.65,0.3 -6.9,1.65 -2.25,1.35 -2.25,6 0,4.35 2.85,4.35 3.3,0 12.15,-7.05 0.75,-0.6 1.95,-1.5 1.2,-0.9 1.65,-1.05 2.25,-1.05 4.05,-1.05 2.55,0 3.75,1.95 1.35,1.95 1.35,5.1 0,3.45 -1.2,6.9 -1.2,3.45 -3.15,5.4 -3.75,3.75 -9,5.85 -5.25,1.95 -10.8,1.95 -2.55,0 -4.95,-0.45 z m 9.9,-37.95 q 0.9,0.3 1.65,0.3 2.85,0 5.4,-1.5 2.7,-1.5 1.8,-3.45 -0.45,-0.15 -1.5,-0.15 -2.4,0 -4.35,1.2 -1.95,1.2 -3,3.6 z"
           style="font-family:'NF-Le petit cochon';-inkscape-font-specification:'NF-Le petit cochon'"
           id="path1080" /></g><g
         aria-label="San"
         transform="matrix(1,0,0,-1,-102.55322,125.06108)"
         id="text16187"
         style="font-size:45px;line-height:1.25;font-family:'NF-Le petit cochon';-inkscape-font-specification:'NF-Le petit cochon';stroke-width:0.75;filter:url(#filter20723)"><path
           d="m 304.68571,-418.29262 c 2.52,3.915 6.75,6.255 11.34,6.255 5.49,0 10.89,-3.15 10.89,-9.72 0,-10.935 -20.34,-3.915 -20.34,-13.185 0,-2.385 2.115,-3.78 4.59,-3.78 3.015,0 6.57,1.755 7.74,5.76 l 8.55,-5.355 c -2.52,-3.915 -6.75,-6.255 -11.34,-6.255 -5.49,0 -10.935,3.105 -10.935,9.63 0,10.89 20.34,3.915 20.34,13.185 0,2.475 -2.07,3.645 -4.5,3.645 -3.105,0 -6.795,-1.935 -7.74,-5.625 z"
           style="font-weight:800;font-family:'Calmius Sans';-inkscape-font-specification:'Calmius Sans Ultra-Bold'"
           id="path1065" /><path
           d="m 337.67073,-412.03762 c 6.12,0 10.44,-4.635 11.925,-8.415 v 7.83 h 1.395 v -10.755 c 0,-6.39 -5.085,-9.765 -10.395,-9.765 -4.545,0 -9.27,2.43 -11.205,7.47 l 7.02,1.845 c 1.17,-3.735 4.275,-5.49 7.2,-5.49 3.105,0 5.985,2.025 5.985,5.94 h -11.925 c -10.71,0 -10.71,11.34 0,11.34 z m 0,-9.945 h 11.925 c -2.205,1.62 -7.11,2.295 -11.925,2.295 -5.94,0 -5.94,-2.295 0,-2.295 z"
           style="font-weight:800;font-family:'Calmius Sans';-inkscape-font-specification:'Calmius Sans Ultra-Bold'"
           id="path1067" /><path
           d="m 355.49074,-412.62262 h 1.395 v -3.6 c 0,-5.625 4.995,-8.46 9.945,-8.46 4.995,0 9.945,2.835 9.945,8.46 v 3.6 h 1.395 v -11.655 c 0,-6.21 -5.355,-8.955 -10.8,-8.955 -4.32,0 -8.685,1.71 -10.485,4.815 v -4.05 h -1.395 z"
           style="font-weight:800;font-family:'Calmius Sans';-inkscape-font-specification:'Calmius Sans Ultra-Bold'"
           id="path1069" /></g></g></g></svg>
